# xmcd
#
# Track frame offsets: 
#        150
#        21690
#        46250
#        70730
#        93290
#        114090
#        134630
#        155030
#        180670
#        202610
#
# Disc length: 3045 seconds
#
# Revision: 0
# Processed by: cddbd v1.5.2PL0 Copyright (c) Steve Scherf et al.
# Submitted via: ExactAudioCopy v1.0b3
#
DISCID=820be30a
DTITLE=Phuong Mai, Tuan Vu - Hoa Su Nha Nang
DYEAR=1991
DGENRE=
TTITLE0=Hoa su nha nang
TTITLE1=Phuong Mai - Gia biet truong xua
TTITLE2=Phuong Mai - Giot le dai trang
TTITLE3=Phuong Mai - Chap tay nguyen cau
TTITLE4=Phuong Mai - Phut cuoi
TTITLE5=Duong tinh doi nga
TTITLE6=Phuong Mai - Xa vang
TTITLE7=Phuong Mai - Cho nguoi tinh nho
TTITLE8=Phuong Mai - Ao em chua mac mot lan
TTITLE9=Phuong Mai - Go cua
EXTD=
EXTT0=
EXTT1=
EXTT2=
EXTT3=
EXTT4=
EXTT5=
EXTT6=
EXTT7=
EXTT8=
EXTT9=
PLAYORDER=
